HIERARCHY
ROOT Reference
{
  OFFSET 0 0 0
  CHANNELS 6 Xposition Yposition Zposition Zrotation Xrotation Yrotation
  JOINT Hips
  {
    OFFSET 251.394 724.17 483.536
    CHANNELS 3 Zrotation Xrotation Yrotation
    JOINT RightUpLeg
    {
      OFFSET -0.450515 -23.4426 -1.37224
      CHANNELS 3 Zrotation Xrotation Yrotation
      JOINT RightLeg
      {
        OFFSET 112.821 0.0872427 -0.321027
        CHANNELS 3 Zrotation Xrotation Yrotation
        JOINT RightFoot
        {
          OFFSET 105.718 0.000193788 0.0213165
          CHANNELS 3 Zrotation Xrotation Yrotation
          JOINT RightToeBase
          {
            OFFSET 37.638 -0.000116272 0.00224792
            CHANNELS 3 Zrotation Xrotation Yrotation
            JOINT RightToeEnd
            {
              OFFSET 21.2112 0.114605 -0.000138184
              CHANNELS 3 Zrotation Xrotation Yrotation
              End Site
              {
                OFFSET 0 0 0
              }
            }
          }
        }
      }
    }
    JOINT LeftUpLeg
    {
      OFFSET -0.449508 23.4315 -1.37054
      CHANNELS 3 Zrotation Xrotation Yrotation
      JOINT LeftLeg
      {
        OFFSET 112.821 -0.0485242 -0.372458
        CHANNELS 3 Zrotation Xrotation Yrotation
        JOINT LeftFoot
        {
          OFFSET 105.716 0.00496094 -0.0229443
          CHANNELS 3 Zrotation Xrotation Yrotation
          JOINT LeftToeBase
          {
            OFFSET 37.639 0 0.00158905
            CHANNELS 3 Zrotation Xrotation Yrotation
            JOINT LeftToeEnd
            {
              OFFSET 21.2113 -0.125031 -0.00017438
              CHANNELS 3 Zrotation Xrotation Yrotation
              End Site
              {
                OFFSET 0 0 0
              }
            }
          }
        }
      }
    }
    JOINT Spine
    {
      OFFSET -5.01225 0.000463591 -9.60395
      CHANNELS 3 Zrotation Xrotation Yrotation
      JOINT Spine1
      {
        OFFSET 26.0222 -0.000271301 -0.000155029
        CHANNELS 3 Zrotation Xrotation Yrotation
        JOINT Spine2
        {
          OFFSET 27.173 -0.000155029 -0.000310058
          CHANNELS 3 Zrotation Xrotation Yrotation
          JOINT Spine3
          {
            OFFSET 36.3953 -0.000232544 7.75146e-005
            CHANNELS 3 Zrotation Xrotation Yrotation
            JOINT Neck
            {
              OFFSET 36.4331 0 -3.00261
              CHANNELS 3 Zrotation Xrotation Yrotation
              JOINT Head
              {
                OFFSET 23.0407 -0.000232544 -0.000310058
                CHANNELS 3 Zrotation Xrotation Yrotation
                End Site
                {
                  OFFSET 0 0 0
                }
              }
            }
            JOINT LeftShoulder
            {
              OFFSET 20.1317 6.74168 -12.6061
              CHANNELS 3 Zrotation Xrotation Yrotation
              JOINT LeftArm
              {
                OFFSET 34.2172 -5.81359e-005 7.75146e-005
                CHANNELS 3 Zrotation Xrotation Yrotation
                JOINT LeftForeArm
                {
                  OFFSET 65.4129 -0.0821605 0.0585235
                  CHANNELS 3 Zrotation Xrotation Yrotation
                  JOINT LeftHand
                  {
                    OFFSET 67.3883 0.0359667 0.0112396
                    CHANNELS 3 Zrotation Xrotation Yrotation
                    JOINT LeftHandThumb1
                    {
                      OFFSET 8.78386 2.85353 -6.05362
                      CHANNELS 3 Zrotation Xrotation Yrotation
                      JOINT LeftHandThumb2
                      {
                        OFFSET 8.25498 -0.000116272 -0.000174407
                        CHANNELS 3 Zrotation Xrotation Yrotation
                        JOINT LeftHandThumb3
                        {
                          OFFSET 7.24822 0.000310058 5.81358e-005
                          CHANNELS 3 Zrotation Xrotation Yrotation
                          JOINT LeftHandThumb4
                          {
                            OFFSET 7.0004 -3.87568e-005 -0.000310057
                            CHANNELS 3 Zrotation Xrotation Yrotation
                            End Site
                            {
                              OFFSET 0 0 0
                            }
                          }
                        }
                      }
                    }
                    JOINT LeftHandIndex1
                    {
                      OFFSET 24.0991 -1.01537 -5.40558
                      CHANNELS 3 Zrotation Xrotation Yrotation
                      JOINT LeftHandIndex2
                      {
                        OFFSET 7.26759 -0.000290679 -0.000465086
                        CHANNELS 3 Zrotation Xrotation Yrotation
                        JOINT LeftHandIndex3
                        {
                          OFFSET 7.13628 -1.93787e-005 0.000232543
                          CHANNELS 3 Zrotation Xrotation Yrotation
                          JOINT LeftHandIndex4
                          {
                            OFFSET 5.46699 9.68932e-005 -0.000387571
                            CHANNELS 3 Zrotation Xrotation Yrotation
                            End Site
                            {
                              OFFSET 0 0 0
                            }
                          }
                        }
                      }
                    }
                    JOINT LeftHandMiddle1
                    {
                      OFFSET 24.4604 -2.52837 0.918567
                      CHANNELS 3 Zrotation Xrotation Yrotation
                      JOINT LeftHandMiddle2
                      {
                        OFFSET 7.41627 -5.81359e-005 0.000116271
                        CHANNELS 3 Zrotation Xrotation Yrotation
                        JOINT LeftHandMiddle3
                        {
                          OFFSET 8.76829 3.87573e-005 -7.75142e-005
                          CHANNELS 3 Zrotation Xrotation Yrotation
                          JOINT LeftHandMiddle4
                          {
                            OFFSET 6.07588 -0.00013565 -5.81356e-005
                            CHANNELS 3 Zrotation Xrotation Yrotation
                            End Site
                            {
                              OFFSET 0 0 0
                            }
                          }
                        }
                      }
                    }
                    JOINT LeftHandRing1
                    {
                      OFFSET 22.465 -1.97467 6.3466
                      CHANNELS 3 Zrotation Xrotation Yrotation
                      JOINT LeftHandRing2
                      {
                        OFFSET 7.36666 -0.000232544 0.000387571
                        CHANNELS 3 Zrotation Xrotation Yrotation
                        JOINT LeftHandRing3
                        {
                          OFFSET 8.07624 -0.000465087 -0.000203475
                          CHANNELS 3 Zrotation Xrotation Yrotation
                          JOINT LeftHandRing4
                          {
                            OFFSET 6.04433 0.00013565 3.87571e-005
                            CHANNELS 3 Zrotation Xrotation Yrotation
                            End Site
                            {
                              OFFSET 0 0 0
                            }
                          }
                        }
                      }
                    }
                    JOINT LeftHandPinky1
                    {
                      OFFSET 19.5278 0.352933 10.4295
                      CHANNELS 3 Zrotation Xrotation Yrotation
                      JOINT LeftHandPinky2
                      {
                        OFFSET 6.16525 5.8136e-005 -0.000251921
                        CHANNELS 3 Zrotation Xrotation Yrotation
                        JOINT LeftHandPinky3
                        {
                          OFFSET 6.14448 -0.000329434 -0.00510625
                          CHANNELS 3 Zrotation Xrotation Yrotation
                          JOINT LeftHandPinky4
                          {
                            OFFSET 4.98555 0.000116272 0.000116271
                            CHANNELS 3 Zrotation Xrotation Yrotation
                            End Site
                            {
                              OFFSET 0 0 0
                            }
                          }
                        }
                      }
                    }
                  }
                }
              }
            }
            JOINT RightShoulder
            {
              OFFSET 20.1309 -6.74152 -12.6063
              CHANNELS 3 Zrotation Xrotation Yrotation
              JOINT RightArm
              {
                OFFSET 34.2171 7.75146e-005 7.75146e-005
                CHANNELS 3 Zrotation Xrotation Yrotation
                JOINT RightForeArm
                {
                  OFFSET 65.4492 0.242543 -0.176501
                  CHANNELS 3 Zrotation Xrotation Yrotation
                  JOINT RightHand
                  {
                    OFFSET 67.3888 -0.0867388 0.0597442
                    CHANNELS 3 Zrotation Xrotation Yrotation
                    JOINT RightHandThumb1
                    {
                      OFFSET 8.78307 -2.85357 -6.05302
                      CHANNELS 3 Zrotation Xrotation Yrotation
                      JOINT RightHandThumb2
                      {
                        OFFSET 8.25493 -7.75145e-005 0
                        CHANNELS 3 Zrotation Xrotation Yrotation
                        JOINT RightHandThumb3
                        {
                          OFFSET 7.24797 -0.000174408 0.000155029
                          CHANNELS 3 Zrotation Xrotation Yrotation
                          JOINT RightHandThumb4
                          {
                            OFFSET 7.00062 0 0
                            CHANNELS 3 Zrotation Xrotation Yrotation
                            End Site
                            {
                              OFFSET 0 0 0
                            }
                          }
                        }
                      }
                    }
                    JOINT RightHandIndex1
                    {
                      OFFSET 24.0991 1.01525 -5.40578
                      CHANNELS 3 Zrotation Xrotation Yrotation
                      JOINT RightHandIndex2
                      {
                        OFFSET 7.26773 7.75144e-005 0.000232543
                        CHANNELS 3 Zrotation Xrotation Yrotation
                        JOINT RightHandIndex3
                        {
                          OFFSET 7.13572 -0.000310058 3.87571e-005
                          CHANNELS 3 Zrotation Xrotation Yrotation
                          JOINT RightHandIndex4
                          {
                            OFFSET 5.46717 0 3.87572e-005
                            CHANNELS 3 Zrotation Xrotation Yrotation
                            End Site
                            {
                              OFFSET 0 0 0
                            }
                          }
                        }
                      }
                    }
                    JOINT RightHandMiddle1
                    {
                      OFFSET 24.4603 2.52899 0.918547
                      CHANNELS 3 Zrotation Xrotation Yrotation
                      JOINT RightHandMiddle2
                      {
                        OFFSET 7.41641 -0.000116272 -0.000116272
                        CHANNELS 3 Zrotation Xrotation Yrotation
                        JOINT RightHandMiddle3
                        {
                          OFFSET 8.76765 -3.87577e-005 0.000232543
                          CHANNELS 3 Zrotation Xrotation Yrotation
                          JOINT RightHandMiddle4
                          {
                            OFFSET 6.07609 -0.000193787 -0.000116271
                            CHANNELS 3 Zrotation Xrotation Yrotation
                            End Site
                            {
                              OFFSET 0 0 0
                            }
                          }
                        }
                      }
                    }
                    JOINT RightHandRing1
                    {
                      OFFSET 22.465 1.97571 6.34696
                      CHANNELS 3 Zrotation Xrotation Yrotation
                      JOINT RightHandRing2
                      {
                        OFFSET 7.36684 0.000193786 0.000155029
                        CHANNELS 3 Zrotation Xrotation Yrotation
                        JOINT RightHandRing3
                        {
                          OFFSET 8.07614 -0.000271301 0
                          CHANNELS 3 Zrotation Xrotation Yrotation
                          JOINT RightHandRing4
                          {
                            OFFSET 6.04468 0.000232543 0
                            CHANNELS 3 Zrotation Xrotation Yrotation
                            End Site
                            {
                              OFFSET 0 0 0
                            }
                          }
                        }
                      }
                    }
                    JOINT RightHandPinky1
                    {
                      OFFSET 19.5277 -0.352346 10.4296
                      CHANNELS 3 Zrotation Xrotation Yrotation
                      JOINT RightHandPinky2
                      {
                        OFFSET 6.16508 0 0.000232543
                        CHANNELS 3 Zrotation Xrotation Yrotation
                        JOINT RightHandPinky3
                        {
                          OFFSET 6.14396 -0.000155048 -0.0048834
                          CHANNELS 3 Zrotation Xrotation Yrotation
                          JOINT RightHandPinky4
                          {
                            OFFSET 4.98577 -7.75146e-005 -7.75143e-005
                            CHANNELS 3 Zrotation Xrotation Yrotation
                            End Site
                            {
                              OFFSET 0 0 0
                            }
                          }
                        }
                      }
                    }
                  }
                }
              }
            }
          }
        }
      }
    }
  }
}
MOTION
Frames:	4
Frame Time:	0.0333333
0 0 0 -90 -7.01671e-015 -180 4.55415 10.5381 -117.709 -171.833 -2.98161 -114.55 1.64385 7.03684 -13.2567 -1.91955 2.66726 43.8183 -0.571834 0.10472 57.7613 0.00021139 -0.000104924 -86.4974 -179.877 7.7243 -103.691 3.4894 7.35007 -25.448 1.0733 -1.4233 46.4939 0.581659 -0.122696 56.7844 -3.47827e-006 7.97026e-005 -86.4975 -6.99871e-005 -1.85785e-005 127.501 15.187 -1.306 -8.22393 -6.06965 -3.85004 -12.092 -1.53501 3.80117 6.6648 3.0895 -10.4257 25.463 -16.1605 -4.6601 50.4939 74.647 21.2618 -16.2783 77.2071 38.0692 18.0762 -1.19361 34.3594 17.1077 -33.0105 -1.2124 -10.2697 -156.123 -1.2964 169.677 0.000430505 -7.15768e-005 10.4461 0.000336544 -7.65469e-006 11.9458 0.000236491 -0.00122922 -0.000121233 113.494 82.167 -89.9988 -0.000364992 -0.000385804 6.99144 0.0010427 -0.000789321 9.41746 -0.000505437 -0.000514877 -0.000561359 15.8458 89.9997 15.3664 5.24442e-005 -0.000353177 14.709 0.000971839 -0.00066789 14.709 -0.000474855 -0.000301835 7.3423e-005 -54.986 87.2291 89.9896 0.000247223 -0.000977505 18.5003 0.00153334 -0.000234045 18.5005 -0.000601479 -0.000671977 0.00067277 -54.9971 84.2103 90.0008 0.00115787 -0.00115322 18.5002 0.000105512 -0.000126538 18.5004 -3.90599e-005 -2.73203e-005 -0.000418349 -84.2682 -18.3091 -27.2668 -71.5477 -27.1608 -1.41533 14.2966 -42.9676 31.7811 10.1385 27.0844 -9.60511 156.123 1.29794 169.677 7.27966e-005 6.88397e-005 10.446 6.76116e-005 0.000127864 11.9457 0.000411987 0.00131226 -180 -113.494 -82.167 -89.999 -0.000196466 -0.000186159 6.9916 0.000184753 6.67863e-005 9.41737 -7.62941e-005 4.57764e-005 -180 -17.1142 -89.9997 14.0981 9.06367e-006 9.44659e-005 14.709 -3.97762e-005 0.000182666 14.709 -6.10353e-005 0.000137329 -180 54.9867 -87.2291 89.9904 -7.15946e-006 -6.49114e-005 18.5002 -4.48749e-005 0.000261888 18.5005 -9.15529e-005 5.79056e-014 -180 54.9969 -84.2103 90.0007 -7.37259e-005 0.000261267 18.5001 -4.51075e-005 9.51872e-005 18.5003 -1.2198e-011 4.57764e-005 -180 
0 0 0 -90 -7.01671e-015 -180 4.57669 10.7345 -117.731 -172.154 -2.78761 -114.726 1.45011 6.34996 -13.0528 -1.98754 2.6179 43.8495 -0.571778 0.104819 57.7504 0.000211045 -0.000103816 -86.4974 -179.663 7.62488 -103.682 3.59076 7.56017 -25.4653 0.94325 -1.10128 46.4692 0.581656 -0.122679 56.7849 -3.21735e-006 8.71909e-005 -86.4975 -3.99702e-005 2.78579e-005 127.486 15.1969 -1.30697 -8.23133 -6.07475 -3.84877 -12.0841 -1.53432 3.80816 6.61918 3.10406 -10.4455 25.5074 -16.2348 -4.62629 50.6024 74.7789 21.2681 -16.3219 77.1884 38.0832 18.1348 -1.16883 34.3493 17.1123 -32.9438 -0.937444 -9.76438 -156.105 -1.25688 169.463 0.000450498 -4.82445e-005 10.8514 0.00029653 -1.59747e-005 12.3261 0.000236493 -0.00123263 -0.000121233 113.851 82.1676 -89.289 -0.0003486 -0.000385038 8.33598 0.00108643 -0.000777226 10.4819 -0.000505437 -0.000533892 -0.00056136 12.4765 89.9997 19.8003 6.06745e-005 -0.000343462 16.0535 0.00095221 -0.000664066 15.7735 -0.000474855 -0.00030525 7.3423e-005 -54.9746 87.229 91.0426 0.000243216 -0.000963064 19.8449 -0.0136292 -0.00562934 19.5519 -0.00060148 -0.00067616 0.00067277 -54.9862 84.2102 91.0541 0.00114922 -0.00113908 19.8448 -0.0129928 -0.00478662 19.5537 -3.90505e-005 -2.73203e-005 -0.000418348 -84.2748 -18.2688 -27.3982 -71.3599 -27.089 -1.2677 14.3398 -42.8613 31.8253 10.359 27.5199 -9.5605 156.104 1.25635 169.463 5.17592e-005 7.84311e-005 10.8514 8.83898e-005 0.000120112 12.326 0.000411987 0.00131226 -180 -113.851 -82.1675 -89.289 -0.000197366 -0.000208418 8.33618 0.000171005 6.98732e-005 10.4818 -7.62941e-005 3.05176e-005 -180 -16.0255 -89.9997 16.2512 4.50634e-005 8.75173e-005 16.0536 -7.82602e-005 0.000175044 15.7734 -6.10353e-005 0.00012207 -180 54.975 -87.229 91.0431 4.16687e-005 -4.6403e-005 19.8448 -7.02664e-005 0.00031134 19.5649 -9.15529e-005 -5.79056e-014 -180 54.9858 -84.2101 91.0538 -7.20715e-005 0.000262221 19.8447 -7.24933e-005 0.000100865 19.5648 -8.13435e-012 3.05176e-005 -180 
0 0 0 -90 -7.01671e-015 -180 4.59894 10.9921 -117.738 -172.61 -2.49203 -114.799 1.29088 5.69042 -12.9353 -2.084 2.65296 43.88 -0.57176 0.105092 57.7193 0.000210673 -0.000100765 -86.4974 -179.193 7.40448 -103.65 3.58265 7.54457 -25.4638 0.856445 -0.666307 46.4137 0.581655 -0.122662 56.7853 -2.86921e-006 9.70635e-005 -86.4975 -7.94433e-005 9.28394e-006 127.476 15.1896 -1.33441 -8.24385 -6.08317 -3.87662 -12.0922 -1.51901 3.7764 6.58561 3.1403 -10.5757 25.4978 -16.3395 -4.66726 50.6925 74.9887 21.2789 -16.3872 77.2523 38.0517 17.9544 -1.12859 34.4334 17.1414 -32.8736 -0.886653 -9.5215 -156.062 -1.17092 168.899 0.000424726 -5.32911e-005 11.8647 0.000331113 -2.63957e-005 13.2768 0.000236492 -0.00123263 -0.000121233 114.64 82.1681 -87.4099 -0.000370558 -0.000372032 11.6974 0.00115341 -0.000788116 13.1431 -0.000505438 -0.00056744 -0.00056136 15.3232 89.9997 19.6147 9.33132e-005 -0.000370965 19.4149 0.00101025 -0.000653527 18.4346 -0.000474855 -0.000316316 7.3423e-005 -54.9438 87.2266 93.6729 0.000289845 -0.000933017 23.2062 0.00160148 -0.000227194 22.2262 -0.000601479 -0.000687486 0.00067277 -54.9573 84.205 93.686 0.00122602 -0.00111757 23.2062 -0.0236115 -0.0098621 22.1999 -3.90506e-005 -2.97352e-005 -0.000418349 -84.3221 -18.2163 -27.5826 -71.2764 -27.0129 -1.27335 14.4528 -42.665 32.1753 10.5389 27.4464 -9.56533 156.062 1.17104 168.899 2.8541e-005 5.20662e-005 11.8647 0.000101206 0.000153117 13.2768 0.000411987 0.001297 -180 -114.64 -82.1681 -87.41 -0.000214704 -0.000219889 11.6975 0.000199579 0.000114361 13.143 -7.62941e-005 3.05176e-005 -180 -17.3441 -89.9997 17.5938 2.41635e-005 0.000111176 19.4149 -3.886e-005 0.000242535 18.4346 -6.10353e-005 0.000106812 -180 54.9448 -87.2266 93.674 6.04953e-005 -7.76245e-005 23.2061 -6.08353e-005 0.000349388 22.2261 -9.15528e-005 -1.52588e-005 -180 54.9573 -84.205 93.6861 -6.45946e-005 0.000329769 23.2061 0.0285382 0.0117839 22.2062 -4.07068e-012 1.52588e-005 -180 
0 0 0 -90 -7.01671e-015 -180 4.62599 11.2539 -117.722 -173.274 -2.07401 -114.939 1.12507 5.06202 -12.7335 -2.20967 2.80709 43.9219 -0.571684 0.105503 57.6714 0.000210276 -9.48655e-005 -86.4974 -178.537 7.11523 -103.57 3.48174 7.3307 -25.4662 0.817761 -0.131986 46.3386 0.58244 -0.119 57.1557 -2.53463e-006 0.000106976 -86.4975 -9.47028e-005 9.28486e-006 127.481 15.1866 -1.37213 -8.26071 -6.1006 -3.8972 -12.115 -1.50722 3.75658 6.53509 3.18552 -10.789 25.4132 -16.3829 -4.68341 50.7462 75.1709 21.2884 -16.443 77.4306 37.9785 17.5525 -1.15991 34.4957 17.3319 -32.7108 -1.21208 -9.87906 -156.016 -1.08449 168.1 0.000422915 -5.86844e-005 13.182 0.000311853 -1.70264e-005 14.5128 0.000236496 -0.00123505 -0.000121233 115.22 82.1602 -84.5266 -0.000338802 -0.000372451 16.0672 0.0012224 -0.000764953 16.6026 -0.000505437 -0.000624738 -0.00056136 20.6808 89.9997 17.7166 0.000112717 -0.000378381 23.7847 0.00106571 -0.00063653 21.8942 -0.000474855 -0.000339225 7.34228e-005 -54.9015 87.2173 97.09 0.000343425 -0.000902229 27.576 0.00168378 -0.000211264 25.6856 -0.00060148 -0.000710774 0.00067277 -54.9164 84.1853 97.1043 0.00129296 -0.00109201 27.576 -0.0114641 -0.00532689 25.6725 -3.906e-005 -3.31503e-005 -0.000418348 -84.4418 -18.1452 -27.8511 -71.2938 -26.9356 -1.41833 14.5421 -42.4827 32.4818 10.5493 28.0433 -9.46828 156.016 1.08436 168.1 1.80134e-005 7.12086e-005 13.182 0.000144752 0.000171685 14.5128 0.000411988 0.00128174 -180 -115.22 -82.1602 -84.5266 -0.000180609 -0.000269102 16.0673 0.000199653 0.000118569 16.6025 -7.62941e-005 3.05176e-005 -180 -21.2862 -89.9997 17.1112 -9.56969e-008 0.000116806 23.7847 -6.59764e-005 0.000275031 21.8941 -6.10352e-005 9.15527e-005 -180 54.9027 -87.2172 97.0914 5.81826e-005 -8.36233e-005 27.576 -7.6934e-005 0.000400705 25.6856 -9.15528e-005 -3.05176e-005 -180 54.9164 -84.1853 97.1044 -8.19203e-005 0.000396543 27.5759 0.0140625 0.00640248 25.6757 1.2184e-011 -4.57764e-005 -180 
